<svg width="36" height="52" viewBox="0 0 36 52" fill="none" xmlns="http://www.w3.org/2000/svg">
<path d="M6.18018 51.6208L17.7581 45.6974L29.3359 51.6208V24.8518H6.18018V51.6208Z" fill="#E3C468"/>
<path d="M0 17.75C0 7.94697 7.94693 -3.8147e-05 17.75 -3.8147e-05C27.5531 -3.8147e-05 35.5 7.94697 35.5 17.75C35.5 27.553 27.5531 35.5 17.75 35.5C7.94693 35.5 0 27.553 0 17.75Z" fill="#B69431"/>
<path d="M3.82568 17.7509C3.82568 10.0864 10.0387 3.87331 17.7032 3.87331C25.3674 3.87331 31.5806 10.0864 31.5806 17.7509C31.5806 25.4154 25.3674 31.6284 17.7032 31.6284C10.0387 31.6284 3.82568 25.4154 3.82568 17.7509Z" fill="#E3C468"/>
<path d="M13.1381 16.2306C13.1727 14.8607 13.5698 13.8131 14.3296 13.0879C15.1009 12.3626 16.1887 12 17.5932 12C18.5026 12 19.2796 12.1554 19.9243 12.4662C20.5689 12.777 21.0524 13.1972 21.3748 13.7268C21.7086 14.2563 21.8755 14.8549 21.8755 15.5226C21.8755 16.3284 21.6856 16.9615 21.3057 17.422C20.9258 17.871 20.4999 18.176 20.0279 18.3372V18.4063C21.4093 18.9243 22.1 19.8855 22.1 21.2899C22.1 22.0267 21.9273 22.6771 21.582 23.2412C21.2366 23.8053 20.7416 24.2427 20.097 24.5535C19.4638 24.8643 18.7098 25.0197 17.8349 25.0197C16.3384 25.0197 15.1642 24.6629 14.3123 23.9491C13.4605 23.2354 13.023 22.1188 13 20.5992H16.7298C16.7068 21.0137 16.7643 21.3302 16.9025 21.549C17.0521 21.7562 17.3054 21.8598 17.6622 21.8598C17.8695 21.8598 18.0421 21.7849 18.1803 21.6353C18.3184 21.4741 18.3875 21.2669 18.3875 21.0137C18.3875 20.6913 18.2781 20.4496 18.0594 20.2884C17.8522 20.1158 17.4953 20.0294 16.9888 20.0294H16.3499V16.9385H16.9715C17.7543 16.9846 18.1457 16.6738 18.1457 16.0061C18.1457 15.7183 18.0824 15.5053 17.9558 15.3672C17.8407 15.229 17.691 15.16 17.5068 15.16C17.0809 15.16 16.8679 15.5168 16.8679 16.2306H13.1381Z" fill="#B69431"/>
</svg>
