<svg width="36" height="52" viewBox="0 0 36 52" fill="none" xmlns="http://www.w3.org/2000/svg">
<path d="M6.18018 51.6208L17.7581 45.6974L29.3359 51.6208V24.8518H6.18018V51.6208Z" fill="#EAEAEA"/>
<path d="M0 17.75C0 7.94697 7.94693 -3.8147e-05 17.75 -3.8147e-05C27.5531 -3.8147e-05 35.5 7.94697 35.5 17.75C35.5 27.553 27.5531 35.5 17.75 35.5C7.94693 35.5 0 27.553 0 17.75Z" fill="#C9C9C9"/>
<path d="M3.82568 17.7509C3.82568 10.0864 10.0387 3.87331 17.7032 3.87331C25.3674 3.87331 31.5806 10.0864 31.5806 17.7509C31.5806 25.4154 25.3674 31.6284 17.7032 31.6284C10.0387 31.6284 3.82568 25.4154 3.82568 17.7509Z" fill="#EAEAEA"/>
<path d="M13.0996 21.386C14.6634 20.2332 15.9004 19.19 16.8107 18.2563C17.7209 17.311 18.1761 16.4292 18.1761 15.6107C18.1761 15.3341 18.1119 15.1208 17.9835 14.971C17.8668 14.8211 17.7093 14.7462 17.5109 14.7462C17.2775 14.7462 17.0908 14.8672 16.9507 15.1093C16.8223 15.3398 16.7757 15.6972 16.8107 16.1814H13.0471C13.0821 15.1093 13.3155 14.2275 13.7473 13.5358C14.1908 12.8442 14.7626 12.3369 15.4628 12.0142C16.163 11.6914 16.9332 11.53 17.7735 11.53C19.2672 11.53 20.3583 11.8874 21.0469 12.6021C21.7471 13.3053 22.0972 14.2102 22.0972 15.3168C22.0972 16.4811 21.7179 17.5762 20.9593 18.6021C20.2125 19.6165 19.273 20.4753 18.1411 21.1785H22.1497V24.2736H13.0996V21.386Z" fill="#C9C9C9"/>
</svg>
