<svg width="36" height="52" viewBox="0 0 36 52" fill="none" xmlns="http://www.w3.org/2000/svg">
<path d="M6.15454 51.4084L17.6848 45.5094L29.215 51.4084V24.7496H6.15454V51.4084Z" fill="#FFE599"/>
<path d="M0 17.6768C0 7.91414 7.91422 -0.000160217 17.677 -0.000160217C27.4397 -0.000160217 35.3539 7.91414 35.3539 17.6768C35.3539 27.4395 27.4397 35.3538 17.677 35.3538C7.91422 35.3538 0 27.4395 0 17.6768Z" fill="#FBBC05"/>
<path d="M3.81006 17.6769C3.81006 10.0439 9.9975 3.85645 17.6304 3.85645C25.2631 3.85645 31.4508 10.0439 31.4508 17.6769C31.4508 25.3098 25.2631 31.4973 17.6304 31.4973C9.9975 31.4973 3.81006 25.3098 3.81006 17.6769Z" fill="#FFE599"/>
<path d="M13.4817 14.7455V10.844H19.8403V24.5554H15.4699V14.7455H13.4817Z" fill="#FBBC05"/>
</svg>
