<?xml version="1.0" encoding="UTF-8"?>
<svg version="1.1" xmlns="http://www.w3.org/2000/svg" width="583" height="170">
<path d="M0 0 C1.27294922 -0.02900391 2.54589844 -0.05800781 3.85742188 -0.08789062 C14.82714876 -0.16113482 24.02715893 1.545495 32.15234375 9.3203125 C40.50500989 18.64166858 43.04327163 27.96408999 43.08276367 40.37768555 C43.08612228 41.04527893 43.0894809 41.71287231 43.09294128 42.4006958 C43.10235727 44.58355624 43.10438901 46.76633934 43.10546875 48.94921875 C43.10868563 50.47662893 43.11205002 52.00403881 43.11555481 53.53144836 C43.12152102 56.72124954 43.12339708 59.91102372 43.12280273 63.10083008 C43.12270074 67.18636152 43.136402 71.27172062 43.15357494 75.35721111 C43.1646896 78.50648292 43.16672218 81.6557128 43.16619301 84.80500221 C43.16737204 86.31168021 43.17178951 87.81835933 43.17952538 89.32501793 C43.18932344 91.42863526 43.18644919 93.53187463 43.18041992 95.63549805 C43.18184494 96.83127975 43.18326996 98.02706146 43.18473816 99.25907898 C42.94775864 102.18580462 42.47134617 103.84747581 40.9375 106.3125 C33.4715751 106.67967663 33.4715751 106.67967663 30.9375 104.9375 C29.9375 103.3125 29.9375 103.3125 29.9375 101.3125 C29.33993896 101.66618652 28.74237793 102.01987305 28.12670898 102.38427734 C20.21189624 106.56388612 12.97678148 107.08868162 4.24047852 106.96435547 C2.00559414 106.93756705 -0.22425299 106.96420056 -2.45898438 106.99609375 C-12.81915903 107.02026106 -21.948722 105.37792873 -30.5 99 C-37.30588989 91.86211548 -40.45713324 84.35802222 -40.375 74.4375 C-40.36936035 73.72859619 -40.3637207 73.01969238 -40.35791016 72.28930664 C-40.17504936 64.42357652 -38.29382757 58.78014448 -32.94140625 52.91796875 C-23.7334867 45.05007907 -13.46018299 45.04712758 -2.02685547 44.96240234 C-0.38380817 44.94579933 1.25916563 44.91845207 2.90185547 44.88037109 C5.27869857 44.82562706 7.6538617 44.80374123 10.03125 44.7890625 C10.76363892 44.76639313 11.49602783 44.74372375 12.25061035 44.72036743 C16.06237937 44.73616884 17.61047696 44.99848798 20.40429688 47.68115234 C22.10829094 50.60561859 22.54852627 51.99550025 21.9375 55.3125 C20.875 57.0625 20.875 57.0625 18.9375 58.3125 C14.15541337 59.17198563 9.53553486 59.43396125 4.68359375 59.453125 C3.32094662 59.47143762 1.95831589 59.49100648 0.59570312 59.51171875 C-1.51973837 59.54072097 -3.63410213 59.56250209 -5.74975586 59.56298828 C-14.83975762 59.19645951 -14.83975762 59.19645951 -22.9296875 62.5625 C-26.14325616 66.70600245 -26.9387711 70.11588641 -27.0625 75.3125 C-26.256325 81.60066501 -23.69579061 85.33884951 -18.78125 89.21875 C-13.62472929 92.50017227 -7.22588008 91.53617223 -1.34838867 91.55273438 C0.73234373 91.56241783 2.81207832 91.59344366 4.89257812 91.625 C6.22655667 91.63153307 7.56054224 91.63678235 8.89453125 91.640625 C10.10085205 91.6499707 11.30717285 91.65931641 12.55004883 91.66894531 C16.30481638 91.27384905 18.66790162 90.14763582 21.9375 88.3125 C22.9275 87.9825 23.9175 87.6525 24.9375 87.3125 C29.25696656 78.92765315 29.22708439 70.13128227 29.125 60.9375 C29.1149292 59.6990332 29.1048584 58.46056641 29.09448242 57.18457031 C29.05607071 53.56020159 28.99826132 49.93655226 28.9375 46.3125 C28.92879883 45.34602539 28.92009766 44.37955078 28.91113281 43.38378906 C29.03251935 30.81552707 29.03251935 30.81552707 22.9375 20.3125 C16.68617218 14.54992157 10.03703196 14.59205813 1.84619141 14.77050781 C-0.1907565 14.81256724 -2.22440698 14.81154879 -4.26171875 14.8046875 C-13.06850579 14.88051362 -13.06850579 14.88051362 -21.0625 18.3125 C-23.69336582 21.52800266 -24.97289568 23.98208408 -26.0625 28 C-27.0625 31.3125 -27.0625 31.3125 -28.875 33.3125 C-31.75286513 34.62809549 -33.10891242 34.37276221 -36.0625 33.3125 C-37.875 32.25 -37.875 32.25 -39.0625 30.3125 C-39.96475355 22.83668488 -37.96948914 17.02005952 -33.33203125 11.10546875 C-23.78405554 0.83329528 -13.33471312 0.09916743 0 0 Z " fill="#ffffff" transform="translate(473.0625,37.6875)"/>
<path d="M0 0 C1.75957031 -0.04350586 1.75957031 -0.04350586 3.5546875 -0.08789062 C14.13416134 -0.16429794 23.24479845 1.77603741 31.0859375 9.24609375 C38.31201089 17.59236629 40.31621906 24.85206036 40.21484375 35.69921875 C39.49827318 43.31792888 35.6556753 49.70058324 29.93212891 54.72998047 C21.44422536 61.25960197 11.79206632 60.90757301 1.5871582 60.77905273 C-0.94971156 60.74985947 -3.48451528 60.75852194 -6.02148438 60.77148438 C-7.64584343 60.76525219 -9.27019596 60.75686533 -10.89453125 60.74609375 C-11.64668411 60.74902939 -12.39883698 60.75196503 -13.17378235 60.75498962 C-17.66126549 60.67460698 -20.505435 59.99746688 -24.125 57.3125 C-23.63872044 50.86929589 -23.63872044 50.86929589 -21.54980469 48.60522461 C-18.24849755 46.84521441 -15.2266435 46.90921468 -11.578125 46.94140625 C-10.07812283 46.92401417 -8.57812288 46.9064299 -7.078125 46.88867188 C-4.73042511 46.87863688 -2.38287661 46.87499425 -0.03515625 46.87670898 C12.02425617 47.04929955 12.02425617 47.04929955 22.875 42.3125 C25.75184925 39.25584767 26.10709609 36.5645076 26.3125 32.5 C26.13501246 27.53774414 25.1955672 23.1240784 21.875 19.3125 C15.77703792 14.38148606 9.53877495 14.69533873 1.9140625 14.79101562 C-0.12100374 14.81245789 -2.15254153 14.79116019 -4.1875 14.765625 C-11.31079844 14.79389206 -16.42689727 14.83953047 -22.125 19.3125 C-26.03712835 23.54182795 -28.36638961 27.15763758 -28.3996582 32.9699707 C-28.40919022 33.88805008 -28.41872223 34.80612946 -28.42854309 35.75202942 C-28.42717598 37.23022408 -28.42717598 37.23022408 -28.42578125 38.73828125 C-28.43006638 39.75923386 -28.4343515 40.78018646 -28.43876648 41.83207703 C-28.4445068 43.99147806 -28.44501224 46.15089843 -28.44067383 48.31030273 C-28.43752165 51.60238982 -28.46095027 54.89357137 -28.48632812 58.18554688 C-28.48860202 60.2864572 -28.48930419 62.38736994 -28.48828125 64.48828125 C-28.497491 65.46767166 -28.50670074 66.44706207 -28.51618958 67.45613098 C-28.45737633 76.21407458 -26.19889262 81.9493744 -20.125 88.3125 C-13.65690849 93.12210651 -5.97434874 92.52113803 1.75 92.5625 C2.70519531 92.583125 3.66039062 92.60375 4.64453125 92.625 C12.07524996 92.66577212 18.04129315 91.95729306 23.6875 86.6875 C26.06532749 83.51174382 27.14771932 80.05876405 28.19921875 76.265625 C28.875 74.3125 28.875 74.3125 30.875 72.3125 C34.37883136 71.85547852 36.24749097 71.94243057 39.3125 73.75 C41.36366443 77.11390967 41.11535172 79.13672426 40.47265625 82.94921875 C38.33937299 91.38475061 33.09766513 98.08208146 25.68359375 102.66796875 C18.32857008 106.41997898 11.6526431 106.5634462 3.52612305 106.60766602 C2.06280806 106.61912464 0.59953282 106.63947852 -0.86352539 106.66918945 C-13.92555104 106.93419031 -23.10822545 105.16201862 -32.85546875 95.890625 C-38.61577093 89.34708036 -42.18752141 82.09336927 -42.31787109 73.3671875 C-42.33393402 72.38516357 -42.34999695 71.40313965 -42.36654663 70.39135742 C-42.41137553 65.88770466 -42.45209676 61.3841955 -42.47509766 56.88037109 C-42.49159995 54.51601275 -42.5188133 52.15170311 -42.55712891 49.78759766 C-42.61235756 46.35813819 -42.63384653 42.92984645 -42.6484375 39.5 C-42.67110687 38.4589209 -42.69377625 37.4178418 -42.71713257 36.34521484 C-42.68829073 26.15212291 -39.39653562 16.55289134 -32.28515625 9.06640625 C-22.34136026 0.99269124 -12.27196165 0.09918072 0 0 Z " fill="#ffffff" transform="translate(166.125,37.6875)"/>
<path d="M0 0 C1.59520176 -0.01643707 3.1903337 -0.04356218 4.78515625 -0.08203125 C16.64054208 -0.3659778 27.25531932 0.26276612 36.47924805 8.72509766 C41.45501185 14.36834197 44.21581533 19.39209932 44.70581055 27.03369141 C44.47924805 29.35009766 44.47924805 29.35009766 42.41674805 32.53759766 C39.47924805 34.35009766 39.47924805 34.35009766 36.35424805 34.47509766 C33.47924805 33.35009766 33.47924805 33.35009766 31.79174805 31.35009766 C30.68034355 28.80974451 29.92716694 26.44032333 29.16674805 23.78759766 C28.03959621 20.22223842 27.5389736 19.40092791 24.54174805 16.85009766 C17.82292661 13.55924634 11.09156373 14.13008672 3.72924805 14.10009766 C1.85366211 14.06916016 1.85366211 14.06916016 -0.05981445 14.03759766 C-11.52231851 13.96425321 -11.52231851 13.96425321 -21.02075195 19.78759766 C-23.21581739 25.00087807 -23.28554169 29.77478049 -22.52075195 35.35009766 C-20.53788965 39.38663877 -18.35495334 42.00010326 -14.52075195 44.35009766 C-10.99045141 45.5268645 -7.78044085 45.50402361 -4.10668945 45.52587891 C-2.60797778 45.54909605 -1.10927985 45.57321413 0.3894043 45.59814453 C2.73926746 45.63308219 5.08863084 45.66250783 7.4387207 45.67602539 C19.51675127 45.75899643 28.53092477 46.85651916 37.6862793 55.35400391 C43.6244924 61.96495575 45.84614518 69.12950955 45.6862793 77.89306641 C44.88759442 87.37179822 40.75308657 94.65969897 33.6784668 100.95166016 C27.64069361 105.53019326 21.66217748 106.66365611 14.15112305 106.68603516 C12.96755219 106.69602036 12.96755219 106.69602036 11.7600708 106.70620728 C10.09601151 106.71629311 8.43191209 106.72102556 6.76782227 106.72070312 C4.25036176 106.72506111 1.73467853 106.76137934 -0.7824707 106.79931641 C-10.68301935 106.87005479 -18.79755169 106.46526884 -27.10668945 100.49072266 C-33.24406499 94.00493716 -36.64046829 88.37328661 -37.63793945 79.42822266 C-37.49741155 76.93619458 -36.84605606 75.45230418 -35.52075195 73.35009766 C-32.72205169 71.95074752 -30.61576403 72.09744361 -27.52075195 72.35009766 C-25.31809076 73.6087612 -24.69542421 74.73874475 -24.00512695 77.15478516 C-23.67787629 78.55351783 -23.35506998 79.95329665 -23.03637695 81.35400391 C-21.92966756 85.63831074 -20.419046 87.80330997 -16.64575195 90.10009766 C-9.7891836 92.842725 -2.99652447 92.56775923 4.29174805 92.60009766 C5.44223633 92.62072266 6.59272461 92.64134766 7.77807617 92.66259766 C14.454914 92.6932078 19.40481525 92.14391344 25.47924805 89.35009766 C26.96424805 88.85509766 26.96424805 88.85509766 28.47924805 88.35009766 C29.66316028 85.9738442 29.66316028 85.9738442 30.47924805 83.35009766 C30.97424805 81.86509766 30.97424805 81.86509766 31.47924805 80.35009766 C32.04013601 74.68728654 31.8276618 70.1494907 28.47924805 65.35009766 C23.97982657 61.74305869 20.97359446 60.85471408 15.24487305 60.84619141 C14.22777252 60.83205956 14.22777252 60.83205956 13.19012451 60.81764221 C11.036188 60.78916744 8.88335657 60.78590494 6.72924805 60.78759766 C-17.90591123 60.74570113 -17.90591123 60.74570113 -27.5559082 51.37353516 C-35.28310202 43.21159904 -37.15261617 37.0009006 -36.86450195 25.75244141 C-36.02001923 17.39398176 -31.73688557 10.88947479 -25.52075195 5.35009766 C-17.31402839 0.1303801 -9.42365431 0.07089056 0 0 Z " fill="#ffffff" transform="translate(369.520751953125,37.64990234375)"/>
<path d="M0 0 C2.2451775 -0.00964423 4.48941446 -0.04066037 6.734375 -0.07226562 C15.90001812 -0.14255489 24.41883315 -0.07782139 32.171875 5.36132812 C33.33589844 6.50794922 33.33589844 6.50794922 34.5234375 7.67773438 C35.31492187 8.43957031 36.10640625 9.20140625 36.921875 9.98632812 C37.65664062 10.73011719 38.39140625 11.47390625 39.1484375 12.24023438 C39.88707031 12.871875 40.62570313 13.50351562 41.38671875 14.15429688 C43.67758417 16.8667628 43.77041701 18.66418208 43.9609375 22.17773438 C44.02925781 23.19738281 44.09757812 24.21703125 44.16796875 25.26757812 C44.14949603 28.07912613 43.80605967 30.5143654 43.1484375 33.24023438 C41.71187896 33.32154901 40.2739892 33.37956996 38.8359375 33.42773438 C37.63517578 33.47994141 37.63517578 33.47994141 36.41015625 33.53320312 C34.1484375 33.24023438 34.1484375 33.24023438 32.4140625 31.97070312 C30.68041654 29.60031682 30.37028365 27.05446973 29.71875 24.23632812 C28.81339496 21.0675855 27.60089042 19.44115366 25.1484375 17.24023438 C18.08196964 13.78045543 10.86499922 13.78559096 3.1484375 13.86523438 C1.46234375 13.84783203 1.46234375 13.84783203 -0.2578125 13.83007812 C-6.80547313 13.85302553 -12.92867875 14.20632118 -18.8515625 17.24023438 C-22.48812823 21.05862839 -23.59384892 24.79177943 -23.94921875 29.93164062 C-23.73437279 35.01059906 -22.1009874 38.80150268 -18.7890625 42.61523438 C-10.07535099 47.43558542 0.24974799 46.38326804 9.87109375 46.07421875 C19.2424261 45.90748952 27.46876044 46.7871193 34.5234375 53.49023438 C41.50162549 60.22741744 44.25697299 66.18228784 44.4609375 75.86523438 C44.37691034 84.85614058 42.10015722 92.04663758 35.9296875 98.70507812 C27.06966213 106.34102104 17.87596987 106.53982723 6.77319336 106.64526367 C5.08092677 106.66670926 3.38876696 106.70065007 1.69702148 106.74780273 C-9.9387354 107.06863952 -19.55830254 106.54512598 -28.83325195 98.52709961 C-33.90091996 93.39750159 -36.49243812 86.42105029 -37.2890625 79.36523438 C-36.81240991 75.96057303 -36.50015241 74.44739264 -33.8515625 72.24023438 C-30.8515625 71.80273438 -30.8515625 71.80273438 -27.8515625 72.24023438 C-24.97204456 74.43976977 -24.37746249 76.35768494 -23.7890625 79.86523438 C-23.42820268 82.21884253 -23.42820268 82.21884253 -22.8515625 84.24023438 C-22.1915625 84.57023437 -21.5315625 84.90023437 -20.8515625 85.24023438 C-20.1296875 86.04460937 -19.4078125 86.84898438 -18.6640625 87.67773438 C-12.29364141 93.48189581 -4.07814584 92.57570591 4.0859375 92.55273438 C5.79813477 92.5769043 5.79813477 92.5769043 7.54492188 92.6015625 C14.12712269 92.60536504 19.2100262 92.16076452 25.1484375 89.24023438 C30.13643922 83.9964377 30.49726541 80.28195991 30.4296875 73.22851562 C30.0539069 69.23584674 28.89679315 67.13714979 26.1484375 64.24023438 C22.05380608 61.1708707 18.5741018 60.82440182 13.609375 60.86914062 C12.12629997 60.85174151 10.64322711 60.83415734 9.16015625 60.81640625 C6.85005353 60.80640052 4.54010381 60.80272196 2.22998047 60.80444336 C-10.03322203 60.78468525 -20.81913693 60.09278656 -30.1953125 51.17773438 C-37.12410846 43.07235042 -37.60450173 33.50896706 -37.06933594 23.30322266 C-36.35498292 16.53608923 -32.76735047 11.80203973 -27.9140625 7.30273438 C-18.979392 0.15163275 -11.01165199 0.02857695 0 0 Z " fill="#ffffff" transform="translate(59.8515625,37.759765625)"/>
<path d="M0 0 C1.73926758 -0.0299707 1.73926758 -0.0299707 3.51367188 -0.06054688 C14.29784853 -0.05448494 23.31595196 2.38515746 31.68359375 9.390625 C42.13161238 20.06267522 43.14179263 32.85683036 43.05078125 46.92578125 C43.05026175 48.51759338 43.05078292 50.10940615 43.05229187 51.70121765 C43.05220261 55.0203929 43.04186226 58.33932293 43.02368164 61.65844727 C43.0009031 65.909862 43.00047198 70.16092207 43.00719929 74.41238117 C43.01054026 77.69206389 43.0039083 80.97166584 42.99407005 84.25133324 C42.99022693 85.81940476 42.98906615 87.38748526 42.9906559 88.95556068 C42.99102701 91.14283028 42.97839714 93.32964459 42.9621582 95.5168457 C42.95524712 97.38141167 42.95524712 97.38141167 42.94819641 99.28364563 C42.70230682 102.25837001 42.25401371 103.9391671 40.6875 106.4375 C34.73046875 106.828125 34.73046875 106.828125 32.6875 106.4375 C30.31515206 104.07552929 29.71587204 102.67526644 29.31568909 99.3216095 C29.31665085 98.09633041 29.31761261 96.87105133 29.31860352 95.60864258 C29.3129538 94.59069611 29.3129538 94.59069611 29.30718994 93.55218506 C29.30076617 92.08172294 29.30107938 90.61121928 29.30737495 89.14075661 C29.31650674 86.8063412 29.30623618 84.4727255 29.29075623 82.13835144 C29.25072799 75.50264723 29.24944454 68.86700606 29.25170898 62.23120117 C29.25176035 58.16747318 29.23245926 54.10417384 29.20237541 50.04056358 C29.19162374 47.75329865 29.20363938 45.46687865 29.21620178 43.17964172 C29.1962125 34.96897623 29.0237532 27.25645995 23.27565002 20.8684845 C16.19483684 14.51710449 8.75146104 15.07166179 -0.25 15.0625 C-2.14395508 15.02576172 -2.14395508 15.02576172 -4.07617188 14.98828125 C-12.99130624 14.94257955 -12.99130624 14.94257955 -20.3125 19.4375 C-20.9725 19.4375 -21.6325 19.4375 -22.3125 19.4375 C-22.745625 20.55125 -22.745625 20.55125 -23.1875 21.6875 C-24.3125 24.4375 -24.3125 24.4375 -25.375 26.375 C-27.52779562 31.11115036 -27.44258586 36.28640674 -27.47021484 41.4050293 C-27.47529556 42.07408295 -27.48037628 42.7431366 -27.48561096 43.4324646 C-27.49625112 44.87453117 -27.50489579 46.3166136 -27.51173019 47.75870323 C-27.5235898 50.04102904 -27.54305562 52.32317158 -27.56484985 54.60542297 C-27.62626209 61.09048406 -27.68063161 67.57551906 -27.71386719 74.06079102 C-27.73478218 78.03602268 -27.77004482 82.01090729 -27.81462479 85.98594093 C-27.82879443 87.49898011 -27.83750941 89.01208052 -27.84067917 90.52518272 C-27.84557481 92.63654523 -27.86869076 94.7469797 -27.89599609 96.8581543 C-27.90408295 98.05917282 -27.9121698 99.26019135 -27.92050171 100.49760437 C-28.3125 103.4375 -28.3125 103.4375 -29.65103149 105.32527161 C-32.25504917 107.06846589 -34.26936409 106.81789199 -37.3125 106.4375 C-38.9747467 105.36146545 -38.9747467 105.36146545 -40.3125 103.4375 C-40.70018005 100.2587738 -40.70018005 100.2587738 -40.71655273 96.27905273 C-40.72341599 95.55340622 -40.73027924 94.8277597 -40.73735046 94.0801239 C-40.75567427 91.6769155 -40.75177002 89.27435719 -40.74609375 86.87109375 C-40.75065605 85.19539681 -40.75596177 83.51970175 -40.76197815 81.8440094 C-40.77092253 78.32586082 -40.76847484 74.807939 -40.75854492 71.28979492 C-40.74711009 66.80319266 -40.76717472 62.31738389 -40.79646206 57.83088589 C-40.81491239 54.36563717 -40.81451316 50.90057496 -40.80882454 47.43528938 C-40.8086721 45.78284665 -40.81465221 44.13039065 -40.82711601 42.47799492 C-40.90926549 29.79001528 -39.53770109 18.94907097 -30.3125 9.4375 C-20.7839254 1.64139351 -12.05420279 -0.07297536 0 0 Z " fill="#ffffff" transform="translate(269.3125,37.5625)"/>
<path d="M0 0 C2.02555325 1.53196375 2.88817475 2.42163569 3.37473011 4.93811798 C3.37456237 5.67626488 3.37439463 6.41441177 3.3742218 7.17492676 C3.38123611 8.02454483 3.38825043 8.8741629 3.39547729 9.74952698 C3.38783356 10.67845261 3.38018982 11.60737823 3.37231445 12.56445312 C3.37596512 13.54518295 3.37961578 14.52591278 3.38337708 15.53636169 C3.39149663 18.78483282 3.37786055 22.03280734 3.36328125 25.28125 C3.36276281 27.53422037 3.36327988 29.78719121 3.36479187 32.04016113 C3.36470208 36.76463564 3.35425938 41.48893974 3.33618164 46.21337891 C3.31349438 52.27657477 3.31294973 58.33952149 3.31969929 64.40274811 C3.32303696 69.05578841 3.31641296 73.70877166 3.30657005 78.36180115 C3.30271429 80.5977702 3.30157139 82.83374559 3.3031559 85.06971741 C3.30352577 88.19178408 3.29092815 91.31352849 3.2746582 94.43554688 C3.27713562 95.3644725 3.27961304 96.29339813 3.28216553 97.25047302 C3.27508072 98.10009109 3.26799591 98.94970917 3.26069641 99.82507324 C3.25864354 100.56322014 3.25659067 101.30136703 3.25447559 102.06188202 C3 104 3 104 1 107 C-2.70749503 107.48060121 -5.01751309 107.64376279 -8.19718933 105.56031799 C-10.91432184 101.70149723 -10.53582142 98.20991283 -10.4699707 93.59741211 C-10.4721611 92.64579697 -10.4743515 91.69418182 -10.47660828 90.71372986 C-10.47891998 87.56791441 -10.45266057 84.42303445 -10.42578125 81.27734375 C-10.42085821 79.09306638 -10.41755877 76.90878479 -10.41581726 74.72450256 C-10.40817494 70.14717128 -10.38760603 65.57015243 -10.35668945 60.99291992 C-10.3170912 55.11924675 -10.29907711 49.24577686 -10.28938007 43.37198544 C-10.27941542 37.77791055 -10.25951999 32.18388552 -10.23828125 26.58984375 C-10.2348855 25.51875807 -10.23148975 24.44767239 -10.2279911 23.34412956 C-10.21643723 20.32042354 -10.19791974 17.29684735 -10.17700195 14.27319336 C-10.17431305 13.37389099 -10.17162415 12.47458862 -10.16885376 11.54803467 C-10.16169846 10.72510422 -10.15454315 9.90217377 -10.14717102 9.05430603 C-10.14289754 8.33958098 -10.13862406 7.62485594 -10.13422108 6.88847256 C-10 5 -10 5 -9 2 C-5.53076119 -0.31282587 -4.07794425 -0.42478586 0 0 Z " fill="#ffffff" transform="translate(545,37)"/>
<path d="M0 0 C2.02555325 1.53196375 2.88817475 2.42163569 3.37473011 4.93811798 C3.37456237 5.67626488 3.37439463 6.41441177 3.3742218 7.17492676 C3.38123611 8.02454483 3.38825043 8.8741629 3.39547729 9.74952698 C3.38783356 10.67845261 3.38018982 11.60737823 3.37231445 12.56445312 C3.37596512 13.54518295 3.37961578 14.52591278 3.38337708 15.53636169 C3.39149663 18.78483282 3.37786055 22.03280734 3.36328125 25.28125 C3.36276281 27.53422037 3.36327988 29.78719121 3.36479187 32.04016113 C3.36470208 36.76463564 3.35425938 41.48893974 3.33618164 46.21337891 C3.31349438 52.27657477 3.31294973 58.33952149 3.31969929 64.40274811 C3.32303696 69.05578841 3.31641296 73.70877166 3.30657005 78.36180115 C3.30271429 80.5977702 3.30157139 82.83374559 3.3031559 85.06971741 C3.30352577 88.19178408 3.29092815 91.31352849 3.2746582 94.43554688 C3.27713562 95.3644725 3.27961304 96.29339813 3.28216553 97.25047302 C3.27508072 98.10009109 3.26799591 98.94970917 3.26069641 99.82507324 C3.25864354 100.56322014 3.25659067 101.30136703 3.25447559 102.06188202 C3 104 3 104 1 107 C-2.70749503 107.48060121 -5.01751309 107.64376279 -8.19718933 105.56031799 C-10.91432184 101.70149723 -10.53582142 98.20991283 -10.4699707 93.59741211 C-10.4721611 92.64579697 -10.4743515 91.69418182 -10.47660828 90.71372986 C-10.47891998 87.56791441 -10.45266057 84.42303445 -10.42578125 81.27734375 C-10.42085821 79.09306638 -10.41755877 76.90878479 -10.41581726 74.72450256 C-10.40817494 70.14717128 -10.38760603 65.57015243 -10.35668945 60.99291992 C-10.3170912 55.11924675 -10.29907711 49.24577686 -10.28938007 43.37198544 C-10.27941542 37.77791055 -10.25951999 32.18388552 -10.23828125 26.58984375 C-10.2348855 25.51875807 -10.23148975 24.44767239 -10.2279911 23.34412956 C-10.21643723 20.32042354 -10.19791974 17.29684735 -10.17700195 14.27319336 C-10.17431305 13.37389099 -10.17162415 12.47458862 -10.16885376 11.54803467 C-10.16169846 10.72510422 -10.15454315 9.90217377 -10.14717102 9.05430603 C-10.14289754 8.33958098 -10.13862406 7.62485594 -10.13422108 6.88847256 C-10 5 -10 5 -9 2 C-5.53076119 -0.31282587 -4.07794425 -0.42478586 0 0 Z M-7 3 C-7.0231209 16.15149024 -7.04091379 29.30297569 -7.05181217 42.45448208 C-7.05704156 48.56056369 -7.0641402 54.66663144 -7.07543945 60.77270508 C-7.08626637 66.66005147 -7.09227642 72.54738449 -7.09487724 78.43474007 C-7.09673185 80.68632277 -7.10035313 82.93790469 -7.10573006 85.18948174 C-7.11293789 88.33133427 -7.11399105 91.47313083 -7.11352539 94.61499023 C-7.11712067 95.55581955 -7.12071594 96.49664886 -7.12442017 97.46598816 C-7.53693715 101.55617471 -7.53693715 101.55617471 -6 105 C-3.58517587 105.50059916 -3.58517587 105.50059916 -1 105 C2.50121034 100.77807386 2.42159684 96.52086524 2.37231445 91.28173828 C2.37596512 90.41443085 2.37961578 89.54712341 2.38337708 88.65353394 C2.39146924 85.79225964 2.37788125 82.93155415 2.36328125 80.0703125 C2.36276239 78.07640585 2.3632811 76.08249868 2.36479187 74.08859253 C2.3647022 69.9107092 2.35428505 65.73301903 2.33618164 61.55517578 C2.31352426 56.20986361 2.3129457 50.86483433 2.31969929 45.51948738 C2.3230476 41.40157576 2.31639244 37.28372816 2.30657005 33.1658287 C2.30273042 31.19552826 2.30156469 29.22522068 2.3031559 27.25491714 C2.30352841 24.49549147 2.29085339 21.73642264 2.2746582 18.97705078 C2.27713562 18.16850647 2.27961304 17.35996216 2.28216553 16.5269165 C2.23671675 11.65365769 1.54740321 7.62714664 0 3 C-3.58327753 1.99782936 -3.58327753 1.99782936 -7 3 Z " fill="#ffffff" transform="translate(545,37)"/>
<path d="M0 0 C0.66 0.33 1.32 0.66 2 1 C0.1986925 7.56190588 0.1986925 7.56190588 -1.02954102 10.27001953 C-2.23949246 13.67371186 -2.48746613 16.91749766 -2.65234375 20.4921875 C-2.69101059 21.25949188 -2.72967743 22.02679626 -2.76951599 22.81735229 C-3.28699145 35.24473493 -2.83976669 47.69618492 -2.5625 60.125 C-2.50914463 62.74087282 -2.45640575 65.3567583 -2.40429688 67.97265625 C-2.27662996 74.31526738 -2.1413856 80.65768061 -2 87 C1.47147842 87.74957157 1.47147842 87.74957157 5 88 C5 64.57 5 41.14 5 17 C5.99 16.67 6.98 16.34 8 16 C7.93883197 25.33602715 7.86175744 34.67174708 7.76428509 44.00746632 C7.71952795 48.34227966 7.68028384 52.67699786 7.65356445 57.01196289 C7.62758445 61.19426007 7.5872203 65.37619215 7.53681374 69.55826378 C7.52010897 71.15503084 7.50861721 72.7518611 7.50238609 74.34870338 C7.49278383 76.58287598 7.46477338 78.81610691 7.43237305 81.05004883 C7.42126999 82.32245926 7.41016693 83.59486969 7.39872742 84.90583801 C7 88 7 88 5.66047668 89.91093445 C3.05164808 91.62200055 1.03147948 91.37893494 -2 91 C-3.6622467 89.92396545 -3.6622467 89.92396545 -5 88 C-5.38768005 84.8212738 -5.38768005 84.8212738 -5.40405273 80.84155273 C-5.41091599 80.11590622 -5.41777924 79.3902597 -5.42485046 78.6426239 C-5.44317427 76.2394155 -5.43927002 73.83685719 -5.43359375 71.43359375 C-5.43815605 69.75789681 -5.44346177 68.08220175 -5.44947815 66.4065094 C-5.45842253 62.88836082 -5.45597484 59.370439 -5.44604492 55.85229492 C-5.43461009 51.36569266 -5.45467472 46.87988389 -5.48396206 42.39338589 C-5.50241239 38.92813717 -5.50201316 35.46307496 -5.49632454 31.99778938 C-5.4961721 30.34534665 -5.50215221 28.69289065 -5.51461601 27.04049492 C-5.57293258 18.03350555 -5.39484173 10.13306527 -1 2 C-0.67 1.34 -0.34 0.68 0 0 Z " fill="#ffffff" transform="translate(234,53)"/>
<path d="M0 0 C4.59664549 0.48515578 6.74144221 2.17623059 10.0625 5.3125 C10.89910156 6.09238281 11.73570313 6.87226562 12.59765625 7.67578125 C13.39042969 8.44277344 14.18320313 9.20976563 15 10 C16.11761719 10.95132813 16.11761719 10.95132813 17.2578125 11.921875 C19.52802824 14.62984534 19.62284409 16.43989209 19.8125 19.9375 C19.91498047 21.46697266 19.91498047 21.46697266 20.01953125 23.02734375 C20.00105853 25.83889176 19.65762217 28.27413102 19 31 C17.56344146 31.08131463 16.1255517 31.13933559 14.6875 31.1875 C13.48673828 31.23970703 13.48673828 31.23970703 12.26171875 31.29296875 C10 31 10 31 8.265625 29.73046875 C6.53197904 27.36008245 6.22184615 24.81423535 5.5703125 21.99609375 C4.66495746 18.82735113 3.45245292 17.20091928 1 15 C-5.84764208 11.68402323 -12.59495599 11.62875601 -20.0625 11.8125 C-21.11888672 11.82603516 -22.17527344 11.83957031 -23.26367188 11.85351562 C-25.84299809 11.8885291 -28.42121494 11.93763325 -31 12 C-31 11.01 -31 10.02 -31 9 C-26.83357303 8.88296553 -22.6675741 8.81246899 -18.5 8.75 C-17.32695313 8.71648438 -16.15390625 8.68296875 -14.9453125 8.6484375 C-5.30985015 8.54017388 0.71987937 10.38170852 8 17 C8.495 17.99 8.495 17.99 9 19 C9.66 18.34 10.32 17.68 11 17 C13.125 16.375 13.125 16.375 15 16 C14.525625 15.401875 14.05125 14.80375 13.5625 14.1875 C12 12 12 12 11 9 C9.34051852 7.98812105 7.67419438 6.9873454 6 6 C6 5.34 6 4.68 6 4 C4.02 3.34 2.04 2.68 0 2 C0 1.34 0 0.68 0 0 Z " fill="#ffffff" transform="translate(84,40)"/>
<path d="M0 0 C0.33 0 0.66 0 1 0 C0.99333817 1.21886902 0.98667633 2.43773804 0.97981262 3.69354248 C0.91904163 15.17086151 0.87404661 26.64814796 0.84456348 38.12559128 C0.82889645 44.02650397 0.80763904 49.92728696 0.77368164 55.828125 C0.7411255 61.52098112 0.7231548 67.21371234 0.71536827 72.90665436 C0.70981805 75.08041602 0.69898005 77.25417073 0.68280983 79.42787933 C0.6610856 82.46867231 0.65803101 85.50894681 0.65942383 88.54980469 C0.648638 89.45179596 0.63785217 90.35378723 0.6267395 91.28311157 C0.64159445 96.10691524 0.64159445 96.10691524 2.35331726 100.54376221 C4.47526236 102.42029651 6.22076381 102.69954203 9 103 C9 103.33 9 103.66 9 104 C5.66450836 104.30322651 3.67264205 104.4415596 0.82624817 102.57302856 C-1.91969879 98.70422251 -1.53603523 95.21712248 -1.4699707 90.58154297 C-1.4721611 89.62832153 -1.4743515 88.6751001 -1.47660828 87.69299316 C-1.47891976 84.54237166 -1.45266357 81.39268441 -1.42578125 78.2421875 C-1.42085853 76.05551449 -1.41755888 73.86883728 -1.41581726 71.68215942 C-1.40817547 67.10063208 -1.38760682 62.51941693 -1.35668945 57.93798828 C-1.31706784 52.0552486 -1.29907356 46.17271196 -1.28938007 40.28985405 C-1.27942274 34.69060417 -1.25952149 29.09140427 -1.23828125 23.4921875 C-1.2348855 22.41843746 -1.23148975 21.34468742 -1.2279911 20.23839951 C-1.21645488 17.21209462 -1.19794094 14.18592061 -1.17700195 11.15966797 C-1.17431305 10.25677032 -1.17162415 9.35387268 -1.16885376 8.4236145 C-1.11490916 2.22981833 -1.11490916 2.22981833 0 0 Z " fill="#ffffff" transform="translate(536,40)"/>
<path d="M0 0 C2.71604883 1.92982417 3.74692606 3.34200775 4.9375 6.4375 C5.01997067 9.81879751 4.0198841 11.33086744 2 14 C-1 16 -1 16 -4.5 15.875 C-8 15 -8 15 -9.9375 13.375 C-11.43699866 10.02317947 -11.45377473 7.63019782 -11 4 C-8.11188513 -0.5054592 -5.11821063 -0.73117295 0 0 Z " fill="#ffffff" transform="translate(545,11)"/>
<path d="M0 0 C0.72680969 0.00141495 1.45361938 0.0028299 2.20245361 0.00428772 C4.51521994 0.00986833 6.82788812 0.02241721 9.140625 0.03515625 C10.71223818 0.04017376 12.28385289 0.04473623 13.85546875 0.04882812 C17.70055843 0.0598314 21.5455751 0.07708264 25.390625 0.09765625 C25.390625 0.42765625 25.390625 0.75765625 25.390625 1.09765625 C21.4476616 1.82108562 17.65829508 2.24376113 13.65234375 2.34375 C12.58435547 2.37662109 11.51636719 2.40949219 10.41601562 2.44335938 C8.20256955 2.50423238 5.98902302 2.56156263 3.77539062 2.61523438 C-9.35013411 2.99918236 -9.35013411 2.99918236 -20.609375 9.09765625 C-25.56129579 15.53515327 -27.75521671 21.99482743 -28.359375 30.09765625 C-28.45734375 31.27328125 -28.5553125 32.44890625 -28.65625 33.66015625 C-28.60718769 37.25805879 -28.03922216 39.80704909 -26.609375 43.09765625 C-25.949375 43.42765625 -25.289375 43.75765625 -24.609375 44.09765625 C-25.929375 44.09765625 -27.249375 44.09765625 -28.609375 44.09765625 C-31.74096594 36.09889386 -32.03360686 26.33088029 -29.76953125 18.01171875 C-26.13615603 10.05988745 -19.66300251 4.39232205 -11.609375 1.09765625 C-7.79646804 -0.17056885 -3.97143268 -0.02923275 0 0 Z " fill="#ffffff" transform="translate(53.609375,37.90234375)"/>
<path d="M0 0 C2.29213486 2.10876407 3.74684126 4.08612758 5.125 6.875 C5.45757812 7.53242187 5.79015625 8.18984375 6.1328125 8.8671875 C8.0369154 13.55025139 8.13005017 18.10100863 8.14526367 23.11352539 C8.15030159 24.15836845 8.15030159 24.15836845 8.15544128 25.22431946 C8.16490225 27.51545009 8.16689161 29.80650733 8.16796875 32.09765625 C8.17118354 33.69518565 8.17454778 35.29271475 8.17805481 36.89024353 C8.18403308 40.23323245 8.18589593 43.57619556 8.18530273 46.91918945 C8.18520092 51.20207188 8.19887891 55.48478924 8.21607494 59.76763248 C8.22719084 63.06445578 8.22922211 66.36123903 8.22869301 69.65807915 C8.22987275 71.23732512 8.2342942 72.81657214 8.24202538 74.39579964 C8.25182169 76.60260769 8.24894934 78.8090553 8.24291992 81.01586914 C8.24434494 82.27097794 8.24576996 83.52608673 8.24723816 84.81922913 C8.01430361 87.81598099 7.5820202 89.48839187 6 92 C3.36 92 0.72 92 -2 92 C-2.66 90.68 -3.32 89.36 -4 88 C-1.36 88.33 1.28 88.66 4 89 C4.495 88.01 4.495 88.01 5 87 C5.66 87 6.32 87 7 87 C7 63.9 7 40.8 7 17 C6.34 17 5.68 17 5 17 C4.35035977 15.10546779 3.70544885 13.20931351 3.0625 11.3125 C2.70285156 10.25675781 2.34320313 9.20101562 1.97265625 8.11328125 C1.12793482 5.40949417 0.49106215 2.78613158 0 0 Z " fill="#ffffff" transform="translate(304,52)"/>
<path d="M0 0 C0.33 0 0.66 0 1 0 C1.20011233 8.68359389 1.3838423 17.367334 1.54658794 26.05170918 C1.62267158 30.08409385 1.70442258 34.11619836 1.79907227 38.14819336 C1.89018448 42.03834096 1.9664791 45.92852146 2.03244972 49.81917381 C2.06024973 51.30445402 2.09341391 52.78964371 2.13199425 54.274683 C2.18507178 56.35281616 2.21916896 58.43045183 2.2487793 60.5090332 C2.27320602 61.69261917 2.29763275 62.87620514 2.32279968 64.09565735 C2 67 2 67 0.48445129 68.90568542 C-0.00541763 69.26680923 -0.49528656 69.62793304 -1 70 C-1.02312566 61.02079223 -1.04091623 52.04159463 -1.05181217 43.06236362 C-1.05704051 38.89337172 -1.06413726 34.72440013 -1.07543945 30.55541992 C-1.08627008 26.53542314 -1.09227721 22.51544595 -1.09487724 18.49543571 C-1.09673118 16.95837025 -1.10035119 15.42130591 -1.10573006 13.88424873 C-1.11294284 11.73864513 -1.11399084 9.59312345 -1.11352539 7.44750977 C-1.115746 6.22395279 -1.11796661 5.00039581 -1.12025452 3.73976135 C-1 1 -1 1 0 0 Z " fill="#ffffff" transform="translate(300,70)"/>
<path d="M0 0 C0.66 0.33 1.32 0.66 2 1 C0.56179187 6.03372844 -1.90245515 7.98955889 -6 11 C-9.79876271 12.26625424 -13.42421926 12.23298547 -17.38671875 12.31640625 C-18.61223198 12.3475779 -18.61223198 12.3475779 -19.86250305 12.37937927 C-22.47075034 12.44473079 -25.07909775 12.50369273 -27.6875 12.5625 C-29.45639054 12.60569892 -31.22527097 12.64931365 -32.99414062 12.69335938 C-37.32932463 12.80039743 -41.66460929 12.90170544 -46 13 C-46.66 15.64 -47.32 18.28 -48 21 C-48.66 20.34 -49.32 19.68 -50 19 C-48.375 12.25 -48.375 12.25 -45 10 C-42.48309554 9.8072566 -40.0677828 9.72299349 -37.55078125 9.7265625 C-36.0475188 9.70625835 -34.54426366 9.6854073 -33.04101562 9.6640625 C-30.68231043 9.64155904 -28.32389514 9.62502844 -25.96508789 9.61914062 C-13.86135249 9.77873103 -13.86135249 9.77873103 -3 5 C-0.98880254 2.43600226 -0.98880254 2.43600226 0 0 Z " fill="#ffffff" transform="translate(192,75)"/>
<path d="M0 0 C3 0.1875 3 0.1875 5 1.1875 C4.67 2.5075 4.34 3.8275 4 5.1875 C3.505 4.1975 3.505 4.1975 3 3.1875 C1.35 3.1875 -0.3 3.1875 -2 3.1875 C-2.13535156 3.744375 -2.27070313 4.30125 -2.41015625 4.875 C-4.24435366 11.37706506 -7.27304211 15.43905594 -12 20.1875 C-12.52722656 20.765 -13.05445313 21.3425 -13.59765625 21.9375 C-14.06042969 22.35 -14.52320313 22.7625 -15 23.1875 C-16.9375 22.8125 -16.9375 22.8125 -19 22.1875 C-20.33383397 22.51882436 -21.66709137 22.85247243 -23 23.1875 C-24.58692639 23.26616959 -26.17678249 23.29534114 -27.765625 23.28515625 C-28.65507812 23.28193359 -29.54453125 23.27871094 -30.4609375 23.27539062 C-31.38132813 23.26701172 -32.30171875 23.25863281 -33.25 23.25 C-34.18585938 23.24548828 -35.12171875 23.24097656 -36.0859375 23.23632812 C-38.39069041 23.22456918 -40.69531227 23.20813426 -43 23.1875 C-43 22.5275 -43 21.8675 -43 21.1875 C-42.37544922 21.17291748 -41.75089844 21.15833496 -41.10742188 21.14331055 C-38.23770448 21.06816898 -35.36906763 20.97173065 -32.5 20.875 C-31.02660156 20.84116211 -31.02660156 20.84116211 -29.5234375 20.80664062 C-22.07279159 20.53345027 -15.84896385 19.84653293 -10.1875 14.5625 C-7.80967251 11.38674382 -6.72728068 7.93376405 -5.67578125 4.140625 C-4.51700686 0.79156607 -3.51493289 0.21968331 0 0 Z " fill="#ffffff" transform="translate(200,109.8125)"/>
<path d="M0 0 C0.72680969 0.00141495 1.45361938 0.0028299 2.20245361 0.00428772 C4.51521994 0.00986833 6.82788812 0.02241721 9.140625 0.03515625 C10.71223818 0.04017376 12.28385289 0.04473623 13.85546875 0.04882812 C17.70055843 0.0598314 21.5455751 0.07708264 25.390625 0.09765625 C25.390625 0.42765625 25.390625 0.75765625 25.390625 1.09765625 C10.045625 1.59265625 10.045625 1.59265625 -5.609375 2.09765625 C-5.609375 2.42765625 -5.609375 2.75765625 -5.609375 3.09765625 C-8.909375 3.42765625 -12.209375 3.75765625 -15.609375 4.09765625 C-15.609375 4.75765625 -15.609375 5.41765625 -15.609375 6.09765625 C-16.516875 6.67515625 -17.424375 7.25265625 -18.359375 7.84765625 C-23.91458062 11.69356783 -26.35780415 16.58278296 -27.609375 23.09765625 C-28.34566995 27.75574446 -28.99971308 32.42141962 -29.609375 37.09765625 C-29.939375 37.09765625 -30.269375 37.09765625 -30.609375 37.09765625 C-31.29247123 16.25057117 -31.29247123 16.25057117 -23.48828125 7.703125 C-16.53165239 1.75889535 -8.89224024 -0.06545361 0 0 Z " fill="#ffffff" transform="translate(463.609375,82.90234375)"/>
<path d="M0 0 C5.14729408 0.91432197 7.84751569 4.00636558 11 8 C15.5674818 15.48374568 15.88315892 23.43234332 15 32 C14.2518106 34.92435172 13.31242187 37.26578776 12 40 C11.01 40 10.02 40 9 40 C9.49615888 37.76728502 10.08282371 35.81570144 11.0234375 33.72265625 C13.50722816 26.7978479 12.47256367 18.7995501 10 12 C9.34 12 8.68 12 8 12 C7.87625 11.38125 7.7525 10.7625 7.625 10.125 C6.65688858 6.83342116 4.83141467 5.88760978 2 4 C0.8125 1.875 0.8125 1.875 0 0 Z " fill="#ffffff" transform="translate(89,89)"/>
<path d="M0 0 C0.7031987 0.0028299 1.4063974 0.00565979 2.13090515 0.00857544 C4.36218767 0.01971099 6.59305892 0.04480253 8.82421875 0.0703125 C10.34309313 0.0803509 11.86197385 0.08947524 13.38085938 0.09765625 C17.09127796 0.11962837 20.80145817 0.15411203 24.51171875 0.1953125 C24.18171875 0.8553125 23.85171875 1.5153125 23.51171875 2.1953125 C22.70541016 2.20989502 21.89910156 2.22447754 21.06835938 2.23950195 C17.38235253 2.31439712 13.69721038 2.4109221 10.01171875 2.5078125 C8.74328125 2.53037109 7.47484375 2.55292969 6.16796875 2.57617188 C-0.65091119 2.77150437 -6.39040735 2.99356487 -12.48828125 6.1953125 C-14.35455179 8.13116078 -14.35455179 8.13116078 -15.36328125 10.3828125 C-16.02973276 11.67610127 -16.72807131 12.95481489 -17.48828125 14.1953125 C-18.14828125 14.1953125 -18.80828125 14.1953125 -19.48828125 14.1953125 C-18.96218875 10.40744653 -18.10724214 8.02379026 -15.48828125 5.1953125 C-14.82828125 5.1953125 -14.16828125 5.1953125 -13.48828125 5.1953125 C-13.15828125 4.2053125 -12.82828125 3.2153125 -12.48828125 2.1953125 C-8.39412212 -0.10207438 -4.61917025 -0.03680614 0 0 Z " fill="#ffffff" transform="translate(363.48828125,48.8046875)"/>
<path d="M0 0 C0.33 0 0.66 0 1 0 C1 15.18 1 30.36 1 46 C0.67 46 0.34 46 0 46 C-0.06058594 45.37351563 -0.12117188 44.74703125 -0.18359375 44.1015625 C-0.26738281 43.28429687 -0.35117187 42.46703125 -0.4375 41.625 C-0.51871094 40.81289062 -0.59992188 40.00078125 -0.68359375 39.1640625 C-0.89090114 36.95727195 -0.89090114 36.95727195 -2 35 C-2.08510205 33.0406396 -2.10717656 31.07837206 -2.09765625 29.1171875 C-2.09443359 27.95058594 -2.09121094 26.78398438 -2.08789062 25.58203125 C-2.07951172 24.35871094 -2.07113281 23.13539062 -2.0625 21.875 C-2.05798828 20.64394531 -2.05347656 19.41289063 -2.04882812 18.14453125 C-2.0370133 15.09630608 -2.02054028 12.04817686 -2 9 C-1.34 9 -0.68 9 0 9 C0 6.03 0 3.06 0 0 Z " fill="#ffffff" transform="translate(504,70)"/>
<path d="M0 0 C0.33 0 0.66 0 1 0 C0.31791798 9.5491483 -2.88501017 15.62188234 -9.8359375 22.234375 C-13.25711666 25.02566197 -17.44649341 28 -22 28 C-21.505 26.515 -21.505 26.515 -21 25 C-19.35 24.67 -17.7 24.34 -16 24 C-15.67 22.35 -15.34 20.7 -15 19 C-14.01 19 -13.02 19 -12 19 C-8.3923025 17.69508814 -7.09370639 16.03077382 -5.3125 12.6875 C-4.68794922 11.54861328 -4.68794922 11.54861328 -4.05078125 10.38671875 C-2.90657352 8.02098402 -2.90657352 8.02098402 -2.48046875 5.39453125 C-2 3 -2 3 0 0 Z " fill="#ffffff" transform="translate(206,115)"/>
<path d="M0 0 C0.70576172 0.52400391 0.70576172 0.52400391 1.42578125 1.05859375 C2.35970703 1.74115234 2.35970703 1.74115234 3.3125 2.4375 C3.92738281 2.88996094 4.54226563 3.34242187 5.17578125 3.80859375 C9.11418827 6.38078677 12.99457175 6.13066291 17.51171875 6.09765625 C18.60405571 6.09553383 18.60405571 6.09553383 19.71846008 6.09336853 C22.04151539 6.08777659 24.36447388 6.07522562 26.6875 6.0625 C28.26367048 6.05748396 29.83984248 6.05292123 31.41601562 6.04882812 C35.27738098 6.0378098 39.13867408 6.02055074 43 6 C43 6.66 43 7.32 43 8 C40.33834192 9.33082904 38.34022125 9.09589405 35.36328125 9.0625 C33.66075195 9.05089844 33.66075195 9.05089844 31.92382812 9.0390625 C29.535805 9.01323207 27.14778411 8.98719389 24.75976562 8.9609375 C19.05892735 8.92230957 13.61101795 8.94844759 8 10 C8 9.34 8 8.68 8 8 C7.2575 7.7525 6.515 7.505 5.75 7.25 C2.79875938 5.90852699 1.15185026 4.39094474 -1 2 C-0.67 1.34 -0.34 0.68 0 0 Z " fill="#ffffff" transform="translate(449,123)"/>
<path d="M0 0 C-1.27514492 2.55028983 -2.40341297 2.93081711 -5 4 C-5.99 4 -6.98 4 -8 4 C-8.33 4.99 -8.66 5.98 -9 7 C-10.1446875 7.61875 -10.1446875 7.61875 -11.3125 8.25 C-17.30137516 12.14973266 -19.04354066 19.46364719 -21 26 C-23 23 -23 23 -22.6796875 20.94921875 C-19.57331526 12.21820162 -15.14733186 5.49600171 -6.953125 0.8359375 C-4.53775164 -0.1978423 -2.60000444 -0.14444469 0 0 Z " fill="#ffffff" transform="translate(148,41)"/>
<path d="M0 0 C0.7748877 0.48218994 0.7748877 0.48218994 1.56542969 0.97412109 C4.76849083 2.32382656 7.48087011 2.32578483 10.953125 2.4140625 C11.61334656 2.43342865 12.27356812 2.4527948 12.95379639 2.4727478 C15.05240153 2.53229349 17.15106228 2.57882722 19.25 2.625 C20.6771066 2.66320294 22.10419072 2.70225602 23.53125 2.7421875 C27.02062691 2.8379733 30.51017286 2.92209642 34 3 C34.495 3.99 34.495 3.99 35 5 C30.53427636 5.04958948 26.06870039 5.085809 21.6027832 5.10986328 C20.08485114 5.11989545 18.56693827 5.13352438 17.04907227 5.15087891 C14.8620936 5.17525035 12.67537136 5.18651095 10.48828125 5.1953125 C9.17384033 5.20578613 7.85939941 5.21625977 6.50512695 5.22705078 C3.18617411 5.01205976 0.96685993 4.44225823 -2 3 C-1.34 2.01 -0.68 1.02 0 0 Z " fill="#ffffff" transform="translate(148,139)"/>
<path d="M0 0 C2.71604883 1.92982417 3.74692606 3.34200775 4.9375 6.4375 C5.01990525 9.8161151 4.05361965 11.35963187 2 14 C1.01 14.33 0.02 14.66 -1 15 C-0.67 14.505 -0.34 14.01 0 13.5 C1.43636358 9.90909106 1.12851462 6.85543873 1 3 C-2.41656024 2.83322718 -2.41656024 2.83322718 -6 3 C-8.21370051 4.78657757 -8.21370051 4.78657757 -8.1953125 7.1640625 C-8.17210937 7.97617187 -8.14890625 8.78828125 -8.125 9.625 C-8.10695313 10.44226562 -8.08890625 11.25953125 -8.0703125 12.1015625 C-8.04710937 12.72804688 -8.02390625 13.35453125 -8 14 C-10.62176661 11.71203922 -10.97072991 11.22997927 -11.4375 7.5625 C-11 4 -11 4 -9.4375 1.5625 C-6.05782196 -0.60396028 -3.94016013 -0.56288002 0 0 Z " fill="#ffffff" transform="translate(545,11)"/>
<path d="M0 0 C2.2026612 1.25866354 2.82532774 2.38864709 3.515625 4.8046875 C3.8435874 6.20646226 4.16903518 7.60882731 4.4921875 9.01171875 C5.7477489 13.92772454 8.00913603 16.17430899 12.1875 18.8125 C13.45183537 19.55287657 14.72065348 20.28587546 16 21 C15.01 21.33 14.02 21.66 13 22 C10.58984375 20.7421875 10.58984375 20.7421875 7.9375 18.875 C7.05964844 18.27429688 6.18179687 17.67359375 5.27734375 17.0546875 C2.75161867 14.77590295 1.91014002 13.24904734 1 10 C0.92353835 7.6679198 0.90856701 5.33154122 1 3 C0.071875 3 -0.85625 3 -1.8125 3 C-3.875 3 -5.9375 3 -8 3 C-8 2.34 -8 1.68 -8 1 C-5.20129973 -0.39935013 -3.09501208 -0.25265405 0 0 Z " fill="#ffffff" transform="translate(342,110)"/>
<path d="M0 0 C0.33 0 0.66 0 1 0 C1.14695313 0.71285156 1.29390625 1.42570312 1.4453125 2.16015625 C3.31618178 10.14898313 5.92269952 15.0166094 12.5625 19.875 C15.05608621 21.02588594 17.28746319 21.61249474 20 22 C20 22.66 20 23.32 20 24 C14.79589905 24.46190245 12.38057862 23.37646006 8.25 20.25 C7.30640625 19.55390625 6.3628125 18.8578125 5.390625 18.140625 C1.10928681 14.30700845 -0.8068085 8.89787249 -1.1875 3.1875 C-1 1 -1 1 0 0 Z " fill="#ffffff" transform="translate(136,108)"/>
<path d="M0 0 C4.45656964 0.50932224 7.0131709 1.60954535 10 5 C11.01484218 8.6304148 11.56786561 12.2591351 12 16 C14.64 16 17.28 16 20 16 C20 16.99 20 17.98 20 19 C12.67542214 19.36022514 12.67542214 19.36022514 10.125 18 C8.69247826 15.45329469 8.21766547 12.82970986 7.59375 9.99609375 C6.35450931 5.82996223 3.07917641 2.92521759 0 0 Z " fill="#ffffff" transform="translate(82,52)"/>
<path d="M0 0 C4.10824083 0.82164817 5.45547319 2.36212574 8.1875 5.5625 C12.23382456 9.06931462 15.81416414 9 21 9 C21.33 10.32 21.66 11.64 22 13 C19.23199709 14.10587676 18.07374559 14.02454763 15.1953125 13.06640625 C8.36660141 9.72155413 3.84278653 6.64060479 0 0 Z " fill="#ffffff" transform="translate(437,129)"/>
<path d="M0 0 C0.53625 0.2475 1.0725 0.495 1.625 0.75 C-1.375 2.75 -1.375 2.75 -3.875 4.0625 C-6.87741433 6.08912967 -7.929102 7.42443461 -9.375 10.75 C-9.76469536 13.03013245 -10.00283163 15.28461526 -10.19140625 17.58984375 C-10.39840097 20.02533484 -10.83691989 22.36707381 -11.375 24.75 C-13.8702781 21.00708285 -14.11353265 17.08221729 -13.375 12.75 C-11.17619252 7.00290233 -7.17998276 -0.75578766 0 0 Z " fill="#ffffff" transform="translate(46.375,50.25)"/>
<path d="M0 0 C0.33 0.66 0.66 1.32 1 2 C1.66 2.33 2.32 2.66 3 3 C2.01 3.66 1.02 4.32 0 5 C-1.01868662 5.98095748 -2.02351983 6.97702078 -3 8 C-3 7.01 -3 6.02 -3 5 C-8.35995109 5.33499694 -12.11910334 8.55602548 -16 12 C-16.99 13.485 -16.99 13.485 -18 15 C-18.99 14.67 -19.98 14.34 -21 14 C-15.62101248 6.52918399 -8.66847596 2.88949199 0 0 Z " fill="#ffffff" transform="translate(256,38)"/>
<path d="M0 0 C0.28746094 0.57621094 0.57492188 1.15242188 0.87109375 1.74609375 C1.58823673 3.17789825 2.30916007 4.60782036 3.03515625 6.03515625 C3.37417969 6.70417969 3.71320312 7.37320313 4.0625 8.0625 C4.40410156 8.73410156 4.74570312 9.40570313 5.09765625 10.09765625 C6 12 6 12 7 15 C9.18137797 16.02450239 9.18137797 16.02450239 12 17 C14.68889473 18.28967358 17.34468871 19.64269448 20 21 C20 21.66 20 22.32 20 23 C13.4786334 21.99142309 8.41855557 18.81578195 4.12109375 13.8125 C1.24630035 9.7115899 -0.87138022 6.14479139 -1 1 C-0.67 0.67 -0.34 0.34 0 0 Z " fill="#ffffff" transform="translate(25,120)"/>
<path d="M0 0 C11.55 0 23.1 0 35 0 C35 0.33 35 0.66 35 1 C33.41058594 1.09087891 33.41058594 1.09087891 31.7890625 1.18359375 C30.40102779 1.26800127 29.01300768 1.35264917 27.625 1.4375 C26.92632812 1.47681641 26.22765625 1.51613281 25.5078125 1.55664062 C21.62639508 1.74280134 21.62639508 1.74280134 18 3 C15.7927077 3.07092842 13.58332548 3.08415025 11.375 3.0625 C10.18648438 3.05347656 8.99796875 3.04445313 7.7734375 3.03515625 C6.85820312 3.02355469 5.94296875 3.01195313 5 3 C5 2.67 5 2.34 5 2 C3.35 1.67 1.7 1.34 0 1 C0 0.67 0 0.34 0 0 Z " fill="#ffffff" transform="translate(456,94)"/>
<path d="M0 0 C4.59664549 0.48515578 6.74144221 2.17623059 10.0625 5.3125 C10.89910156 6.09238281 11.73570313 6.87226562 12.59765625 7.67578125 C13.39042969 8.44277344 14.18320313 9.20976563 15 10 C15.76699219 10.67933594 16.53398438 11.35867187 17.32421875 12.05859375 C19 14 19 14 18.75 17.75 C18.5025 18.8225 18.255 19.895 18 21 C16 20 16 20 15 17.0625 C14.67 16.051875 14.34 15.04125 14 14 C13.34 13.34 12.68 12.68 12 12 C11.67 11.01 11.34 10.02 11 9 C9.34051852 7.98812105 7.67419438 6.9873454 6 6 C6 5.34 6 4.68 6 4 C4.02 3.34 2.04 2.68 0 2 C0 1.34 0 0.68 0 0 Z " fill="#ffffff" transform="translate(84,40)"/>
<path d="M0 0 C0.71929687 0.24621094 1.43859375 0.49242187 2.1796875 0.74609375 C2.1796875 1.07609375 2.1796875 1.40609375 2.1796875 1.74609375 C0.5296875 1.74609375 -1.1203125 1.74609375 -2.8203125 1.74609375 C-2.8203125 2.40609375 -2.8203125 3.06609375 -2.8203125 3.74609375 C-4.4296875 5.0078125 -4.4296875 5.0078125 -6.5703125 6.43359375 C-10.72070341 9.41392765 -12.62402816 12.17050138 -14.8203125 16.74609375 C-15.4803125 16.74609375 -16.1403125 16.74609375 -16.8203125 16.74609375 C-17.1503125 17.73609375 -17.4803125 18.72609375 -17.8203125 19.74609375 C-17.26718515 15.71616593 -16.6645063 11.72586451 -15.8203125 7.74609375 C-14.8303125 7.74609375 -13.8403125 7.74609375 -12.8203125 7.74609375 C-10.23338789 5.74232333 -7.82909141 3.57963451 -5.390625 1.3984375 C-2.8203125 -0.25390625 -2.8203125 -0.25390625 0 0 Z " fill="#ffffff" transform="translate(152.8203125,49.25390625)"/>
<path d="M0 0 C0.33 1.32 0.66 2.64 1 4 C2.32 4.33 3.64 4.66 5 5 C5 4.34 5 3.68 5 3 C6.65 3.33 8.3 3.66 10 4 C9.62607279 6.71097227 9.18642373 7.82000467 7.1875 9.75 C5 11 5 11 1 11 C1 10.34 1 9.68 1 9 C1.66 8.67 2.32 8.34 3 8 C1.68 7.34 0.36 6.68 -1 6 C-1.042721 4.33388095 -1.04063832 2.66617115 -1 1 C-0.67 0.67 -0.34 0.34 0 0 Z " fill="#ffffff" transform="translate(437,61)"/>
<path d="M0 0 C0.33 0 0.66 0 1 0 C2.33346244 7.754374 2.26684333 13.25155046 -2 20 C-3.82607036 22.5137508 -5.67207011 24.93146801 -8 27 C-8.66 27 -9.32 27 -10 27 C-8.50582706 23.60415241 -6.45202305 20.8134815 -4.21875 17.87890625 C-1.57111512 13.79713582 -0.72286062 9.99957196 -0.375 5.1875 C-0.30023438 4.21167969 -0.22546875 3.23585938 -0.1484375 2.23046875 C-0.09945313 1.49441406 -0.05046875 0.75835937 0 0 Z " fill="#ffffff" transform="translate(412,111)"/>
<path d="M0 0 C6.20987719 3.29198309 10.2684524 8.70150902 12.890625 15.2109375 C13.4375 17.125 13.4375 17.125 14 20 C13.01 20 12.02 20 11 20 C10.63648438 19.12988281 10.63648438 19.12988281 10.265625 18.2421875 C6.62336252 9.49316412 6.62336252 9.49316412 0 3 C0 2.01 0 1.02 0 0 Z " fill="#ffffff" transform="translate(192,44)"/>
<path d="M0 0 C3.29752004 0.30029955 4.76181829 0.78218636 7.23828125 3.046875 C12.90168277 10.4274284 14.05414049 15.79091151 13 25 C12.67 25 12.34 25 12 25 C11.98582031 24.3709375 11.97164063 23.741875 11.95703125 23.09375 C11.59635281 16.62103414 10.32922223 11.93622958 6 7 C4.0712513 5.51948164 2.0627195 4.29519596 0 3 C0 2.01 0 1.02 0 0 Z " fill="#ffffff" transform="translate(490,51)"/>
<path d="M0 0 C0.98484375 0.02707031 1.9696875 0.05414063 2.984375 0.08203125 C3.73203125 0.11683594 4.4796875 0.15164062 5.25 0.1875 C2.31990952 2.14089366 1.19836894 2.46111264 -2.125 2.9375 C-7.26568907 3.99071435 -8.89162772 5.85663291 -11.75 10.1875 C-13.02852287 12.40337348 -13.02852287 12.40337348 -13.75 14.1875 C-14.08 12.2075 -14.41 10.2275 -14.75 8.1875 C-13.76 7.8575 -12.77 7.5275 -11.75 7.1875 C-11.440625 6.56875 -11.13125 5.95 -10.8125 5.3125 C-8.40360019 0.49470037 -5.10471532 -0.18231126 0 0 Z " fill="#ffffff" transform="translate(458.75,94.8125)"/>
<path d="M0 0 C4.455 0.99 4.455 0.99 9 2 C9 2.66 9 3.32 9 4 C9.78375 4.721875 10.5675 5.44375 11.375 6.1875 C14.51848035 9.55551466 15.04743363 11.58355591 16 16 C15.34 16.33 14.68 16.66 14 17 C13.72027344 16.32453125 13.44054687 15.6490625 13.15234375 14.953125 C10.35289222 8.72412031 8.31217404 5.72289861 2 3 C2 2.34 2 1.68 2 1 C1.34 0.67 0.68 0.34 0 0 Z " fill="#ffffff" transform="translate(179,50)"/>
<path d="M0 0 C0.66 0.66 1.32 1.32 2 2 C1.67 2.86625 1.34 3.7325 1 4.625 C0.01268659 7.95718275 -0.16420974 10.55159538 0 14 C1.98 14.66 3.96 15.32 6 16 C6 16.33 6 16.66 6 17 C0.62686567 18.31343284 0.62686567 18.31343284 -1.875 17.0625 C-3.65772732 13.79416659 -3.51043178 10.58611043 -3 7 C-2.18604288 4.51134951 -1.17660168 2.35320335 0 0 Z " fill="#ffffff" transform="translate(437,53)"/>
<path d="M0 0 C4.72091613 2.06003613 8.69424544 4.96163938 12.4375 8.5 C12.7675 9.49 13.0975 10.48 13.4375 11.5 C12.4475 11.995 12.4475 11.995 11.4375 12.5 C11.4375 11.84 11.4375 11.18 11.4375 10.5 C10.7775 10.5 10.1175 10.5 9.4375 10.5 C8.695 9.71625 7.9525 8.9325 7.1875 8.125 C4.28923338 5.35847277 2.267969 4.47988742 -1.5625 3.5 C-1.5625 2.84 -1.5625 2.18 -1.5625 1.5 C-2.5525 1.17 -3.5425 0.84 -4.5625 0.5 C-2.5625 -0.5 -2.5625 -0.5 0 0 Z " fill="#ffffff" transform="translate(290.5625,40.5)"/>
<path d="M0 0 C4.73126769 0 6.97871463 1.57422661 10.25 4.75 C13.10536467 7.64963389 14.67934781 10.14585178 16 14 C15.01 14.495 15.01 14.495 14 15 C13.6596875 14.49210937 13.319375 13.98421875 12.96875 13.4609375 C9.65160854 8.74989085 6.28904581 5.39340789 1.5390625 2.12890625 C1.03117187 1.75636719 0.52328125 1.38382813 0 1 C0 0.67 0 0.34 0 0 Z " fill="#ffffff" transform="translate(495,42)"/>
<path d="M0 0 C0 0.99 0 1.98 0 3 C-3.01793723 5.84548367 -5.9634177 7.9377415 -10 9 C-10.99 8.34 -11.98 7.68 -13 7 C-12.38125 6.566875 -11.7625 6.13375 -11.125 5.6875 C-8.7802755 4.00259517 -8.7802755 4.00259517 -7 1 C-6.401875 1.20625 -5.80375 1.4125 -5.1875 1.625 C-2.71549154 2.30671915 -2.71549154 2.30671915 0 0 Z " fill="#ffffff" transform="translate(197,88)"/>
<path d="M0 0 C0.66 0.33 1.32 0.66 2 1 C2 2.32 2 3.64 2 5 C4.64 5 7.28 5 10 5 C10.33 4.34 10.66 3.68 11 3 C11.5625 4.9375 11.5625 4.9375 12 7 C11 8 11 8 7.125 8.25 C3.30387289 8.20891261 3.30387289 8.20891261 1 6.625 C0 5 0 5 0 3 C-0.66 3 -1.32 3 -2 3 C-2 2.34 -2 1.68 -2 1 C-1.34 0.67 -0.68 0.34 0 0 Z " fill="#ffffff" transform="translate(503,136)"/>
<path d="M0 0 C0.66 0 1.32 0 2 0 C-0.05811498 5.55691045 -5.38512193 8.6275891 -10 12 C-11.32 11.34 -12.64 10.68 -14 10 C-12.71426358 7.42852716 -11.78645458 7.36852166 -9.125 6.4375 C-8.07699219 6.06431641 -8.07699219 6.06431641 -7.0078125 5.68359375 C-5.34070587 5.11599908 -3.67070865 4.55690288 -2 4 C-0.79117904 1.99983534 -0.79117904 1.99983534 0 0 Z " fill="#ffffff" transform="translate(400,122)"/>
<path d="M0 0 C2.64 0 5.28 0 8 0 C8 0.33 8 0.66 8 1 C12.29 1.33 16.58 1.66 21 2 C21 2.33 21 2.66 21 3 C12.09 3 3.18 3 -6 3 C-6 2.67 -6 2.34 -6 2 C-4.02 2 -2.04 2 0 2 C0 1.34 0 0.68 0 0 Z " fill="#ffffff" transform="translate(54,84)"/>
<path d="M0 0 C4.90935895 4.53063698 7.3393813 10.39381296 8 17 C7.01 17 6.02 17 5 17 C4.35035977 15.10546779 3.70544885 13.20931351 3.0625 11.3125 C2.70285156 10.25675781 2.34320313 9.20101562 1.97265625 8.11328125 C1.12793482 5.40949417 0.49106215 2.78613158 0 0 Z " fill="#ffffff" transform="translate(304,52)"/>
<path d="M0 0 C8.58 0.66 17.16 1.32 26 2 C26 2.33 26 2.66 26 3 C22.97950658 3.19613594 19.95894342 3.38214855 16.9375 3.5625 C16.08994141 3.61857422 15.24238281 3.67464844 14.36914062 3.73242188 C9.39662713 4.02040528 4.90223755 3.89796753 0 3 C0 2.01 0 1.02 0 0 Z " fill="#ffffff" transform="translate(359,130)"/>
<path d="M0 0 C1.875 0.25 1.875 0.25 4 1 C5.0625 2.875 5.0625 2.875 6 5 C8.05230662 7.42545327 10.1105473 8.7047281 13 10 C13 10.66 13 11.32 13 12 C8.19555978 10.54410902 4.32037271 7.73095643 1 4 C0.296875 1.8046875 0.296875 1.8046875 0 0 Z " fill="#ffffff" transform="translate(27,83)"/>
<path d="M0 0 C1.98 0.99 1.98 0.99 4 2 C3.85915204 3.79206547 3.71216299 5.58364917 3.5625 7.375 C3.48128906 8.37273437 3.40007812 9.37046875 3.31640625 10.3984375 C3 13 3 13 2 15 C1.34 15 0.68 15 0 15 C0 10.05 0 5.1 0 0 Z " fill="#ffffff" transform="translate(401,106)"/>
<path d="M0 0 C0.6875 1.8125 0.6875 1.8125 1 4 C0 5.6875 0 5.6875 -2 7 C-7.50191364 8.32045927 -12.48326877 7.81312365 -18 7 C-18 6.67 -18 6.34 -18 6 C-13.05 6 -8.1 6 -3 6 C-2.34 4.35 -1.68 2.7 -1 1 C-0.67 0.67 -0.34 0.34 0 0 Z " fill="#ffffff" transform="translate(494,89)"/>
<path d="M0 0 C0.33 0 0.66 0 1 0 C1.76258253 7.96475086 0.07063514 13.16714816 -4 20 C-5.43088528 17.13822943 -4.59991697 15.06624227 -4 12 C-3.34 12 -2.68 12 -2 12 C-2 10.68 -2 9.36 -2 8 C-1.34 8 -0.68 8 0 8 C0 5.36 0 2.72 0 0 Z " fill="#ffffff" transform="translate(205,67)"/>
<path d="M0 0 C0.515625 0.721875 1.03125 1.44375 1.5625 2.1875 C3.61753451 4.55869366 5.2128198 5.95830619 7.75 7.6875 C9.35875 8.8321875 9.35875 8.8321875 11 10 C11 10.66 11 11.32 11 12 C6.2790317 11.12265191 3.11408866 8.58592027 0 5 C-0.4375 2.125 -0.4375 2.125 0 0 Z " fill="#ffffff" transform="translate(36,74)"/>
<path d="M0 0 C0.99 0.33 1.98 0.66 3 1 C-0.27388701 5.23679495 -3.20840762 8.39587371 -8 11 C-8.99 10.67 -9.98 10.34 -11 10 C-10.46375 9.608125 -9.9275 9.21625 -9.375 8.8125 C-3.9677323 5.0282545 -3.9677323 5.0282545 0 0 Z " fill="#ffffff" transform="translate(96,131)"/>
<path d="M0 0 C5.31323137 1.26505509 8.86816572 3.55236034 12 8 C12.375 10.875 12.375 10.875 12 13 C11.608125 12.443125 11.21625 11.88625 10.8125 11.3125 C7.73322016 7.38376366 4.69422546 3.91246222 0 2 C0 1.34 0 0.68 0 0 Z " fill="#ffffff" transform="translate(389,50)"/>
<path d="M0 0 C0.66 0 1.32 0 2 0 C2.33 0.99 2.66 1.98 3 3 C1.90081184 3.98475214 0.7954398 4.96260473 -0.3125 5.9375 C-0.92738281 6.48277344 -1.54226563 7.02804688 -2.17578125 7.58984375 C-4 9 -4 9 -7 10 C-7.33 9.34 -7.66 8.68 -8 8 C-4.25 5 -4.25 5 -2 5 C-1.34 3.35 -0.68 1.7 0 0 Z " fill="#ffffff" transform="translate(500,120)"/>
<path d="M0 0 C4 3 8 6 12 9 C10.68 9.33 9.36 9.66 8 10 C8 9.34 8 8.68 8 8 C7.2575 7.7525 6.515 7.505 5.75 7.25 C2.79875938 5.90852699 1.15185026 4.39094474 -1 2 C-0.67 1.34 -0.34 0.68 0 0 Z " fill="#ffffff" transform="translate(449,123)"/>
<path d="M0 0 C3.41459045 0.25293263 4.24795319 1.25948589 6.6875 3.8125 C9.64029666 7.88257108 9.64029666 7.88257108 10 11 C9.34 11 8.68 11 8 11 C4 5.58823529 4 5.58823529 4 3 C2.68 2.34 1.36 1.68 0 1 C0 0.67 0 0.34 0 0 Z " fill="#ffffff" transform="translate(402,91)"/>
<path d="M0 0 C0.33 0.66 0.66 1.32 1 2 C1.66 2.33 2.32 2.66 3 3 C1.14375 3.680625 1.14375 3.680625 -0.75 4.375 C-3.59245495 5.4384007 -6.32663046 6.55192483 -9 8 C-8.1875 6.0625 -8.1875 6.0625 -7 4 C-6.01 3.67 -5.02 3.34 -4 3 C-3.67 2.34 -3.34 1.68 -3 1 C-2.01 0.67 -1.02 0.34 0 0 Z " fill="#ffffff" transform="translate(256,49)"/>
<path d="M0 0 C2.01822917 0.29296875 4.03645833 0.5859375 6.0546875 0.87890625 C8.08140667 1.1684297 8.08140667 1.1684297 10 0 C10.33 0.99 10.66 1.98 11 3 C10 4 10 4 8.15234375 4.09765625 C6.1015625 4.06510417 4.05078125 4.03255208 2 4 C1.34 2.68 0.68 1.36 0 0 Z " fill="#ffffff" transform="translate(300,140)"/>
<path d="M0 0 C-0.92039062 0.35191406 -0.92039062 0.35191406 -1.859375 0.7109375 C-4.5630421 2.3390582 -5.09053534 3.72633836 -6.25 6.625 C-6.58515625 7.44226563 -6.9203125 8.25953125 -7.265625 9.1015625 C-7.50796875 9.72804688 -7.7503125 10.35453125 -8 11 C-8.33 11 -8.66 11 -9 11 C-9.35897436 4.77777778 -9.35897436 4.77777778 -7.875 1.5625 C-5.24871143 -0.6260738 -3.31446363 -0.29461899 0 0 Z " fill="#ffffff" transform="translate(32,110)"/>
<path d="M0 0 C3.2605096 3.2605096 3.05467405 6.89083745 3.0625 11.3125 C3.041875 12.529375 3.02125 13.74625 3 15 C2.67 15 2.34 15 2 15 C2 12.69 2 10.38 2 8 C1.34 8 0.68 8 0 8 C-0.66 6.02 -1.32 4.04 -2 2 C-1.34 1.34 -0.68 0.68 0 0 Z " fill="#ffffff" transform="translate(412,102)"/>
<path d="M0 0 C0.47050781 0.33773437 0.94101562 0.67546875 1.42578125 1.0234375 C2.35970703 1.69246094 2.35970703 1.69246094 3.3125 2.375 C3.92738281 2.81585938 4.54226563 3.25671875 5.17578125 3.7109375 C6.7652392 4.83410907 8.38062171 5.92041447 10 7 C8.3125 7.6875 8.3125 7.6875 6 8 C2.30194812 6.32707177 0.44626119 4.81287042 -1 1 C-0.67 0.67 -0.34 0.34 0 0 Z " fill="#ffffff" transform="translate(348,77)"/>
<path d="M0 0 C1.32 0 2.64 0 4 0 C2.80100302 3.0831351 1.52299523 6.06279492 0 9 C-0.66 9 -1.32 9 -2 9 C-2 6.69 -2 4.38 -2 2 C-1.34 2 -0.68 2 0 2 C0 1.34 0 0.68 0 0 Z " fill="#ffffff" transform="translate(243,57)"/>
<path d="M0 0 C3.82329121 3.42083951 5.77599069 5.9926892 7 11 C7 11.66 7 12.32 7 13 C6.34 13 5.68 13 5 13 C4.73445313 12.38511719 4.46890625 11.77023438 4.1953125 11.13671875 C3.84210938 10.32847656 3.48890625 9.52023438 3.125 8.6875 C2.77695312 7.88699219 2.42890625 7.08648437 2.0703125 6.26171875 C0.97428106 3.8038166 0.97428106 3.8038166 -1 1 C-0.67 0.67 -0.34 0.34 0 0 Z " fill="#ffffff" transform="translate(293,56)"/>
<path d="M0 0 C0.66 0.33 1.32 0.66 2 1 C1.67 1.66 1.34 2.32 1 3 C0.34 3 -0.32 3 -1 3 C-1.66 5.64 -2.32 8.28 -3 11 C-3.66 10.34 -4.32 9.68 -5 9 C-3.375 2.25 -3.375 2.25 0 0 Z " fill="#ffffff" transform="translate(147,85)"/>
<path d="M0 0 C0.33 0.99 0.66 1.98 1 3 C1.66 3.33 2.32 3.66 3 4 C4.36244796 5.64295195 5.69864875 7.30824337 7 9 C6.67 9.66 6.34 10.32 6 11 C3.69 9.02 1.38 7.04 -1 5 C-0.67 3.35 -0.34 1.7 0 0 Z " fill="#ffffff" transform="translate(36,119)"/>
<path d="M0 0 C0.66 0.66 1.32 1.32 2 2 C1 3 0 4 -1 5 C-1.7115625 5.7734375 -1.7115625 5.7734375 -2.4375 6.5625 C-4.16484976 8.15166178 -5.86709165 9.04386867 -8 10 C-6.34908222 5.70761377 -3.26245434 3.1206085 0 0 Z " fill="#ffffff" transform="translate(446,43)"/>
<path d="M0 0 C1 3 1 3 0.22265625 5.04296875 C-0.16019531 5.75066406 -0.54304688 6.45835938 -0.9375 7.1875 C-1.31777344 7.90292969 -1.69804687 8.61835937 -2.08984375 9.35546875 C-2.54037109 10.16951172 -2.54037109 10.16951172 -3 11 C-3.66 10.01 -4.32 9.02 -5 8 C-1.125 1.125 -1.125 1.125 0 0 Z " fill="#ffffff" transform="translate(449,55)"/>
<path d="M0 0 C4.12751449 0.60698743 7.3321148 2.03810791 11 4 C10.67 4.99 10.34 5.98 10 7 C6.7 5.35 3.4 3.7 0 2 C0 1.34 0 0.68 0 0 Z " fill="#ffffff" transform="translate(281,50)"/>
<path d="M0 0 C0.33 0.99 0.66 1.98 1 3 C-3.5 7 -3.5 7 -8 7 C-8 6.34 -8 5.68 -8 5 C-6.35 5 -4.7 5 -3 5 C-2.690625 4.360625 -2.38125 3.72125 -2.0625 3.0625 C-1 1 -1 1 0 0 Z " fill="#ffffff" transform="translate(446,65)"/>
<path d="M0 0 C6.625 0.75 6.625 0.75 10 3 C10 3.66 10 4.32 10 5 C2.42857143 3.14285714 2.42857143 3.14285714 0 0 Z " fill="#ffffff" transform="translate(180,39)"/>
<path d="M0 0 C1.35158203 0.15275391 1.35158203 0.15275391 2.73046875 0.30859375 C3.41753906 0.39238281 4.10460937 0.47617187 4.8125 0.5625 C4.8125 0.8925 4.8125 1.2225 4.8125 1.5625 C0.1925 1.8925 -4.4275 2.2225 -9.1875 2.5625 C-7.23786415 -1.3367717 -3.76002314 -0.43948322 0 0 Z " fill="#ffffff" transform="translate(153.1875,39.4375)"/>
<path d="M0 0 C1.23556641 0.01740234 1.23556641 0.01740234 2.49609375 0.03515625 C3.32238281 0.04417969 4.14867187 0.05320313 5 0.0625 C5.63808594 0.07410156 6.27617187 0.08570313 6.93359375 0.09765625 C6.93359375 0.42765625 6.93359375 0.75765625 6.93359375 1.09765625 C5.88558594 1.40509766 5.88558594 1.40509766 4.81640625 1.71875 C3.90632813 1.98816406 2.99625 2.25757813 2.05859375 2.53515625 C1.15367187 2.80199219 0.24875 3.06882813 -0.68359375 3.34375 C-3.04916006 4.02379451 -3.04916006 4.02379451 -5.06640625 5.09765625 C-2.6606399 0.12573913 -2.6606399 0.12573913 0 0 Z " fill="#ffffff" transform="translate(456.06640625,50.90234375)"/>
<path d="M0 0 C2.3125 0.1875 2.3125 0.1875 5 1 C6.8125 3.5625 6.8125 3.5625 8 6 C7.01 6.495 7.01 6.495 6 7 C6 6.34 6 5.68 6 5 C5.34 5 4.68 5 4 5 C2.61767557 3.37373596 1.28062485 1.7074998 0 0 Z " fill="#ffffff" transform="translate(296,46)"/>
<path d="M0 0 C-2.63904371 1.41377341 -5.07120629 2.37240135 -8 3 C-8 2.01 -8 1.02 -8 0 C-4.71303767 -0.79953138 -3.28976808 -1.09658936 0 0 Z " fill="#ffffff" transform="translate(456,42)"/>
<path d="M0 0 C0.66 0.33 1.32 0.66 2 1 C0.71480435 3.86697492 -0.57129254 5.97607712 -3 8 C-3.66 8 -4.32 8 -5 8 C-5 6 -5 6 -3.0625 4 C-2.381875 3.34 -1.70125 2.68 -1 2 C-0.67 1.34 -0.34 0.68 0 0 Z " fill="#ffffff" transform="translate(201,127)"/>
<path d="" fill="#ffffff" transform="translate(0,0)"/>
<path d="" fill="#ffffff" transform="translate(0,0)"/>
<path d="M0 0 C2 1 2 1 2 1 Z " fill="#ffffff" transform="translate(198,90)"/>
<path d="" fill="#ffffff" transform="translate(0,0)"/>
<path d="" fill="#ffffff" transform="translate(0,0)"/>
<path d="" fill="#ffffff" transform="translate(0,0)"/>
<path d="" fill="#ffffff" transform="translate(0,0)"/>
<path d="" fill="#ffffff" transform="translate(0,0)"/>
<path d="" fill="#ffffff" transform="translate(0,0)"/>
<path d="" fill="#ffffff" transform="translate(0,0)"/>
<path d="" fill="#ffffff" transform="translate(0,0)"/>
<path d="" fill="#ffffff" transform="translate(0,0)"/>
<path d="" fill="#ffffff" transform="translate(0,0)"/>
<path d="" fill="#ffffff" transform="translate(0,0)"/>
<path d="" fill="#ffffff" transform="translate(0,0)"/>
<path d="" fill="#ffffff" transform="translate(0,0)"/>
<path d="" fill="#ffffff" transform="translate(0,0)"/>
<path d="" fill="#ffffff" transform="translate(0,0)"/>
<path d="" fill="#ffffff" transform="translate(0,0)"/>
<path d="" fill="#ffffff" transform="translate(0,0)"/>
<path d="" fill="#ffffff" transform="translate(0,0)"/>
<path d="" fill="#ffffff" transform="translate(0,0)"/>
<path d="" fill="#ffffff" transform="translate(0,0)"/>
</svg>
